<?xml version="1.0" encoding="UTF-8" standalone="no"?>
<!-- Created with Inkscape (http://www.inkscape.org/) -->

<svg
   xmlns:osb="http://www.openswatchbook.org/uri/2009/osb"
   xmlns:dc="http://purl.org/dc/elements/1.1/"
   xmlns:cc="http://creativecommons.org/ns#"
   xmlns:rdf="http://www.w3.org/1999/02/22-rdf-syntax-ns#"
   xmlns:svg="http://www.w3.org/2000/svg"
   xmlns="http://www.w3.org/2000/svg"
   xmlns:sodipodi="http://sodipodi.sourceforge.net/DTD/sodipodi-0.dtd"
   xmlns:inkscape="http://www.inkscape.org/namespaces/inkscape"
   version="1.1"
   id="svg80"
   width="21.333332"
   height="21.333332"
   viewBox="0 0 21.333332 21.333332"
   sodipodi:docname="logs_icon.svg"
   inkscape:version="0.92.4 (unknown)">
  <metadata
     id="metadata86">
    <rdf:RDF>
      <cc:Work
         rdf:about="">
        <dc:format>image/svg+xml</dc:format>
        <dc:type
           rdf:resource="http://purl.org/dc/dcmitype/StillImage" />
        <dc:title></dc:title>
      </cc:Work>
    </rdf:RDF>
  </metadata>
  <defs
     id="defs84">
    <linearGradient
       id="linearGradient4608"
       osb:paint="solid">
      <stop
         style="stop-color:#000000;stop-opacity:1;"
         offset="0"
         id="stop4606" />
    </linearGradient>
    <linearGradient
       id="linearGradient4602">
      <stop
         style="stop-color:#000000;stop-opacity:1;"
         offset="0"
         id="stop4600" />
    </linearGradient>
  </defs>
  <sodipodi:namedview
     pagecolor="#ffffff"
     bordercolor="#666666"
     borderopacity="1"
     objecttolerance="10"
     gridtolerance="10"
     guidetolerance="10"
     inkscape:pageopacity="0"
     inkscape:pageshadow="2"
     inkscape:window-width="1080"
     inkscape:window-height="1861"
     id="namedview82"
     showgrid="false"
     showguides="true"
     inkscape:guide-bbox="true"
     inkscape:zoom="14.94868"
     inkscape:cx="14.623033"
     inkscape:cy="-9.8128852"
     inkscape:window-x="0"
     inkscape:window-y="0"
     inkscape:window-maximized="1"
     inkscape:current-layer="svg80"
     inkscape:snap-intersection-paths="false"
     inkscape:object-paths="true"
     inkscape:snap-grids="true" />
  <rect
     id="rect90"
     width="14.815598"
     height="18.344252"
     x="3.2588673"
     y="1.4945402"
     style="fill:#ffffff;fill-opacity:1;stroke:#000000;stroke-width:1.10976958;stroke-opacity:1" />
  <path
     style="fill:#ffffff;fill-opacity:1;stroke:#000000;stroke-width:0.41118404;stroke-miterlimit:4;stroke-dasharray:none;stroke-opacity:1"
     id="path4748"
     d="m 5.1935983,4.7981831 c 0.7117633,-0.037329 1.4253356,-0.078183 2.1410408,-0.080248 0.5305123,0.00295 1.0221404,0.117988 1.5250102,0.1942512 0.408504,0.059432 0.8319402,0.065092 1.2522027,0.070367 0.277854,0.019638 0.556452,-0.03048 0.833381,-0.00997 0.09901,0.00733 0.301318,0.040508 0.395245,0.054963 0.285122,0.034958 0.576816,0.1079401 0.874925,0.1073963 0.07011,-1.278e-4 0.139353,-0.00841 0.209029,-0.012617 0.643753,-0.05527 1.238989,-0.2053807 1.817316,-0.3603576 0.636325,-0.1735309 0.775114,-0.087315 1.308637,0.1004543 0.05635,0.017072 0.112687,0.034143 0.169031,0.051215 0,0 -0.09075,0.02748 -0.09075,0.02748 v 0 c -0.05642,-0.017187 -0.112852,-0.034374 -0.169279,-0.05156 -0.375561,-0.1322718 -0.656534,-0.2637825 -1.119204,-0.1437671 -0.640507,0.1695683 -1.289699,0.3467816 -2.00299,0.4069392 -0.07025,0.00387 -0.14014,0.011712 -0.210764,0.011604 -0.298515,-4.551e-4 -0.589713,-0.072912 -0.875335,-0.1082013 -0.09994,-0.015252 -0.288997,-0.046338 -0.394132,-0.053761 -0.276691,-0.019535 -0.55528,0.029504 -0.83284,0.00989 C 9.6032125,5.0069034 9.1791871,5.0009216 8.7703299,4.9407628 8.26857,4.8641471 7.7775216,4.7497435 7.2477261,4.7475582 6.5319046,4.7501282 5.81808,4.7900972 5.106399,4.8286862 c 0,0 0.0872,-0.030503 0.087199,-0.030503 z"
     inkscape:connector-curvature="0" />
  <path
     style="fill:#ffffff;fill-opacity:1;stroke:#000000;stroke-width:0.35216701;stroke-miterlimit:4;stroke-dasharray:none;stroke-opacity:1"
     id="path4750"
     d="m 5.4197814,6.9524432 c 0.4469782,0.01063 0.900839,-0.019086 1.3457617,0.011601 0.091493,0.00631 0.1811645,0.017961 0.2717467,0.026941 0.3228619,0.034994 0.6172871,0.1144868 0.9355123,0.1566185 0.1804578,0.023892 0.3436818,0.034352 0.5277104,0.048878 0.715844,0.042545 1.4395612,0.010074 2.1555895,-0.016146 0.711643,-0.027034 1.427001,-0.00859 2.139828,-0.00332 0.762977,0.00409 1.526939,0.013394 2.287754,0.043271 0,0 -0.07724,0.023895 -0.07724,0.023895 v 0 c -0.760294,-0.030043 -1.523741,-0.039737 -2.286243,-0.0434 -0.713107,-0.00496 -1.428674,-0.022953 -2.140588,0.00402 C 9.8629597,7.2307067 9.1385671,7.2632557 8.4222251,7.2202697 8.2370172,7.2055273 8.0749594,7.1950592 7.89336,7.1708809 7.5756809,7.1285847 7.2815951,7.0491544 6.9588876,7.014613 6.8685147,7.0057758 6.7790328,6.9942872 6.6877688,6.9881014 6.2424361,6.9579172 5.7883069,6.9872164 5.3409941,6.9772475 c 0,0 0.078787,-0.024804 0.078787,-0.024804 z"
     inkscape:connector-curvature="0" />
  <path
     style="fill:#ffffff;fill-opacity:1;stroke:#000000;stroke-width:0.5;stroke-miterlimit:4;stroke-dasharray:none;stroke-opacity:1"
     id="path4752"
     d="m 6.1298963,14.391811 c 0.4552285,4.62e-4 0.9104574,4.04e-4 1.365686,4.58e-4 0.5154293,0.0049 1.015858,0.136842 1.5247618,0.203509 0.6560598,0.07693 1.3174139,0.07361 1.9751609,0.025 0.448997,-0.05457 0.898301,-0.09758 1.35008,-0.119298 0.434192,-0.03967 0.862136,0.02197 1.28872,0.09599 0.421477,0.08259 0.840197,0.172683 1.266592,0.22671 0.138406,0.02166 0.275835,0.02784 0.415379,0.02286 0,0 -0.0786,0.05023 -0.0786,0.05023 v 0 c -0.139614,0.0039 -0.27729,-0.0026 -0.415685,-0.02441 -0.426201,-0.05475 -0.844822,-0.145165 -1.266282,-0.227379 -0.426412,-0.07337 -0.854116,-0.13387 -1.287976,-0.09407 -0.451359,0.02179 -0.900178,0.06567 -1.3489,0.11881 -0.658287,0.04759 -1.320167,0.05099 -1.976674,-0.02625 -0.5085738,-0.06695 -1.0089005,-0.198558 -1.5241164,-0.202497 -0.4557106,5.4e-5 -0.9114214,-4e-6 -1.3671317,4.58e-4 0,0 0.078985,-0.05013 0.078985,-0.05012 z"
     inkscape:connector-curvature="0" />
  <path
     style="fill:#ffffff;fill-opacity:1;stroke:#000000;stroke-width:0.54773909;stroke-miterlimit:4;stroke-dasharray:none;stroke-opacity:1"
     id="path4762"
     d="m 5.3251451,16.785058 c 1.4021685,-0.01279 2.7998879,-0.04495 4.1983876,-0.07387 0.9101853,-0.01662 1.8162243,-0.04618 2.7254003,-0.06653 0.530029,-0.0118 1.061951,-0.01429 1.593473,-0.01547 0.55237,-0.0052 1.084849,0.02649 1.577392,0.09309 0.313014,0.04282 0.164381,0.02234 0.446003,0.06136 0,0 -0.170708,0.02644 -0.170708,0.02644 v 0 c -0.280921,-0.03909 -0.132626,-0.01859 -0.445072,-0.06142 -0.492297,-0.06556 -1.023102,-0.09632 -1.573414,-0.09084 -0.530917,0.0012 -1.062199,0.0039 -1.591617,0.01561 -0.908539,0.02024 -1.813939,0.04975 -2.7235199,0.06616 -1.3992629,0.02863 -2.7977455,0.06023 -4.200375,0.07416 0,0 0.1640548,-0.0287 0.1640548,-0.0287 z"
     inkscape:connector-curvature="0" />
  <path
     style="fill:#ffffff;fill-opacity:1;stroke:#000000;stroke-width:0.41118404;stroke-miterlimit:4;stroke-dasharray:none;stroke-opacity:1"
     id="path4748-7"
     d="m 5.2971138,12.315004 c 0.7117633,-0.03733 1.4253356,-0.07818 2.1410408,-0.08025 0.5305123,0.003 1.0221404,0.117988 1.5250102,0.194252 0.408504,0.05943 0.8319402,0.06509 1.2522022,0.07037 0.277854,0.01964 0.556452,-0.03048 0.833381,-0.01 0.09901,0.0073 0.301318,0.04051 0.395245,0.05496 0.285122,0.03496 0.576816,0.10794 0.874925,0.107396 0.07011,-1.28e-4 0.139353,-0.0084 0.209029,-0.01262 0.643754,-0.05527 1.23899,-0.205381 1.817317,-0.360358 0.636325,-0.173531 0.775114,-0.08732 1.308637,0.100455 0.05635,0.01707 0.112687,0.03414 0.169031,0.05122 0,0 -0.09075,0.02748 -0.09075,0.02748 v 0 c -0.05642,-0.01719 -0.112852,-0.03437 -0.169279,-0.05156 -0.375561,-0.132272 -0.656534,-0.263783 -1.119204,-0.143768 -0.640507,0.169569 -1.289699,0.346782 -2.002991,0.40694 -0.07025,0.0039 -0.14014,0.01171 -0.210764,0.0116 -0.298515,-4.55e-4 -0.589713,-0.07291 -0.875335,-0.108202 -0.09994,-0.01525 -0.288997,-0.04634 -0.394132,-0.05376 -0.276691,-0.01953 -0.55528,0.0295 -0.83284,0.0099 -0.420909,-0.0053 -0.8449344,-0.01132 -1.2537916,-0.07147 -0.5017599,-0.07662 -0.9928083,-0.191019 -1.5226038,-0.193205 -0.7158215,0.0026 -1.4296461,0.04254 -2.1413271,0.08113 0,0 0.0872,-0.0305 0.087199,-0.0305 z"
     inkscape:connector-curvature="0" />
  <path
     style="fill:#ffffff;fill-opacity:1;stroke:#000000;stroke-width:0.41118404;stroke-miterlimit:4;stroke-dasharray:none;stroke-opacity:1"
     id="path4748-5"
     d="m 5.2302182,9.4916599 c 0.7117633,-0.03733 1.4253357,-0.07818 2.1410409,-0.08025 0.5305123,0.003 1.0221404,0.117988 1.5250102,0.194251 0.408504,0.05943 0.8319402,0.06509 1.2522027,0.07037 0.277854,0.01964 0.556452,-0.03048 0.833381,-0.01 0.09901,0.0073 0.301318,0.04051 0.395245,0.05496 0.285122,0.03496 0.576816,0.10794 0.874925,0.107396 0.07011,-1.27e-4 0.139353,-0.0084 0.209029,-0.01262 0.643753,-0.05527 1.238989,-0.20538 1.817316,-0.360357 0.636325,-0.173531 0.775114,-0.08732 1.308637,0.100454 0.05635,0.01707 0.112687,0.03414 0.169031,0.05122 0,0 -0.09075,0.02748 -0.09075,0.02748 v 0 c -0.05642,-0.01719 -0.112852,-0.03437 -0.169279,-0.05156 -0.375561,-0.132272 -0.656534,-0.263782 -1.119204,-0.143767 -0.640507,0.169568 -1.289699,0.346781 -2.00299,0.406939 -0.07025,0.0039 -0.14014,0.01171 -0.210764,0.0116 -0.298515,-4.55e-4 -0.589713,-0.07291 -0.875335,-0.108201 -0.09994,-0.01525 -0.288997,-0.04634 -0.394132,-0.05376 -0.276691,-0.01953 -0.55528,0.0295 -0.83284,0.0099 -0.4209095,-0.0054 -0.8449349,-0.01134 -1.2537921,-0.0715 -0.5017599,-0.07662 -0.9928083,-0.191019 -1.5226038,-0.193204 -0.7158215,0.0026 -1.4296462,0.04254 -2.1413272,0.08113 0,0 0.0872,-0.0305 0.087199,-0.0305 z"
     inkscape:connector-curvature="0" />
</svg>
